<svg xmlns="http://www.w3.org/2000/svg" width="104" height="73.727" viewBox="0 0 104 73.727">
  <path id="Path_6987" data-name="Path 6987" d="M103.1,38.751q.235-.941.41-1.863c.066-.346.133-.692.186-1.034.1-.626.161-1.242.213-1.853.046-.524.071-1.04.085-1.553s.023-1.052,0-1.568c-.006-.152.01-.312,0-.463a1.555,1.555,0,0,0-.052-.22A22.965,22.965,0,0,0,92,11.979,39,39,0,0,0,58.863,7.725c-.559.2-1.114.4-1.673.613A17.824,17.824,0,0,1,50.5,9.909a27.389,27.389,0,0,1-8.546-2.454A30.891,30.891,0,0,0,32.3,4.741,31.938,31.938,0,0,0,12.648,9.782,27,27,0,0,0,.426,28.16a29.784,29.784,0,0,0-.4,5.067c0,.047-.023.091-.023.139,0,.065.015.13.016.2a31.691,31.691,0,0,0,.347,4.277c.029.2.069.4.1.6a33.809,33.809,0,0,0,.947,4.145c.021.071.035.142.057.213a36.181,36.181,0,0,0,1.554,4.1c.13.293.267.582.405.873A38.387,38.387,0,0,0,5.559,51.7a56.678,56.678,0,0,0,47.4,26.685c1.454,0,2.914-.06,4.371-.184a54.11,54.11,0,0,0,44.622-35.682c.351-.961.642-1.905.9-2.84C102.946,39.367,103.019,39.06,103.1,38.751ZM40.422,24.992c.607.092,1.235.172,1.851.261v5.459a1.629,1.629,0,0,1-1.625,1.625h-6.5a4.881,4.881,0,0,1-4.876-4.876V24.25c.365-.026.727-.088,1.092-.105a50.512,50.512,0,0,1,10.06.848Zm8.349.911a35.081,35.081,0,0,0,9.479-1.463l.276-.068v3.09a4.881,4.881,0,0,1-4.876,4.876H50.4a4.881,4.881,0,0,1-4.876-4.876V25.65C46.6,25.761,47.673,25.874,48.771,25.9Zm33.2-1.146a72.438,72.438,0,0,1,8.117,2.317,4.936,4.936,0,0,1-3.933,2.013h-6.5a1.629,1.629,0,0,1-1.625-1.625V23.994C79.432,24.236,80.765,24.494,81.974,24.757Zm-20.2,2.7V23.62a23.764,23.764,0,0,1,4.508-.545,60.232,60.232,0,0,1,8.5.436v3.952A4.881,4.881,0,0,1,69.9,32.338H63.4a1.629,1.629,0,0,1-1.625-1.625Zm-35.758-2.9v2.9a1.629,1.629,0,0,1-1.625,1.625h-6.5a4.809,4.809,0,0,1-3.3-1.35,47,47,0,0,1,11.429-3.173ZM11.495,29.1a8.026,8.026,0,0,0,6.4,3.235h6.5a4.847,4.847,0,0,0,2.738-.845,8.1,8.1,0,0,0,7.015,4.1h6.5A4.864,4.864,0,0,0,44.766,33.3,8.087,8.087,0,0,0,50.4,35.589h3.251A8.087,8.087,0,0,0,59.285,33.3,4.864,4.864,0,0,0,63.4,35.589h6.5a8.1,8.1,0,0,0,7.015-4.1,4.847,4.847,0,0,0,2.738.845h6.5a8.1,8.1,0,0,0,7.035-4.1c2.15.854,4.28,1.777,6.362,2.839-.106.166-.208.327-.331.514-.11.169-.223.34-.347.525-.231.345-.5.736-.777,1.133-.161.232-.318.459-.494.707-.3.418-.638.877-.98,1.335-.2.272-.391.532-.609.816-.394.516-.837,1.067-1.28,1.619-.209.261-.4.507-.618.774-.684.83-1.414,1.687-2.2,2.566-.059.065-.127.134-.186.2q-1.093,1.213-2.312,2.462c-.3.309-.638.62-.952.93-.6.592-1.2,1.184-1.846,1.776-.4.365-.822.726-1.234,1.089-.608.535-1.22,1.07-1.862,1.6-.335.275-.69.541-1.034.812a8.1,8.1,0,0,0-4.462-1.343H74.781a4.847,4.847,0,0,0-2.738.845,8.1,8.1,0,0,0-7.015-4.1H61.778a4.866,4.866,0,0,0-4.114,2.284,8.087,8.087,0,0,0-11.272.008,4.864,4.864,0,0,0-4.118-2.291H39.022a8.1,8.1,0,0,0-7.014,4.1,4.847,4.847,0,0,0-2.738-.845H26.019A7.984,7.984,0,0,0,20.458,50.8,70.517,70.517,0,0,1,9.63,40.737l-.068-.079c-.607-.7-1.169-1.381-1.694-2.038-.118-.149-.227-.292-.341-.438-.414-.528-.807-1.043-1.165-1.532-.186-.255-.352-.494-.523-.737-.254-.361-.509-.721-.729-1.052-.194-.293-.357-.556-.524-.823s-.329-.518-.463-.746c-.032-.054-.05-.093-.081-.146C5.621,32.1,9.232,30.221,11.495,29.1ZM51.686,61.722l-.044,0c-.98.012-1.925-.065-2.881-.114-.538-.027-1.082-.043-1.612-.088V53.468a4.88,4.88,0,0,1,8.327-3.451A4.772,4.772,0,0,1,56.9,53.468v7.851c-.042.006-.081.016-.124.022a45.473,45.473,0,0,1-5.091.382ZM43.9,53.468v7.64c-.139-.022-.283-.037-.421-.06-.459-.077-.927-.134-1.379-.223-1.193-.239-2.356-.533-3.5-.855-.249-.069-.5-.127-.751-.2-1.263-.377-2.494-.8-3.7-1.269V53.468a4.881,4.881,0,0,1,4.876-4.876h3.251A1.608,1.608,0,0,1,43.9,50.217Zm-13,3.625a57.821,57.821,0,0,1-7.7-4.338,4.832,4.832,0,0,1,2.828-.912H29.27A1.608,1.608,0,0,1,30.9,53.468Zm45.552-2.927q-.846.519-1.72,1.013c-.513.291-1.046.562-1.573.839V53.468a1.608,1.608,0,0,1,1.625-1.625h3.251a4.856,4.856,0,0,1,1.513.285q-.493.346-1,.686Q77.52,53.505,76.448,54.166ZM69.9,57.589c-.567.251-1.139.494-1.72.726-.631.252-1.257.508-1.9.736-.886.312-1.8.575-2.718.838-.633.182-1.255.381-1.9.537-.49.118-1.008.187-1.507.29v-10.5a1.608,1.608,0,0,1,1.625-1.625h3.251A4.881,4.881,0,0,1,69.9,53.468ZM3.632,28.712A23.8,23.8,0,0,1,14.426,12.506,28.443,28.443,0,0,1,30.092,7.922c.663,0,1.33.019,2,.063a27.948,27.948,0,0,1,8.638,2.483,30.205,30.205,0,0,0,9.584,2.686,19.475,19.475,0,0,0,8.016-1.771c.536-.2,1.073-.4,1.6-.587a35.75,35.75,0,0,1,30.333,3.933l.007.006a20.493,20.493,0,0,1,10.086,13.111c-.474-.236-.959-.436-1.436-.661-.643-.3-1.285-.6-1.934-.89-.94-.414-1.889-.8-2.841-1.172-.618-.243-1.234-.5-1.857-.722-1.052-.383-2.113-.725-3.177-1.06-.535-.168-1.064-.356-1.6-.512-1.6-.466-3.217-.888-4.842-1.246-1.752-.383-3.851-.77-6.182-1.092-.028,0-.052-.016-.081-.016l-.012,0a69.114,69.114,0,0,0-10.147-.653,37.783,37.783,0,0,0-8.784,1.46,32.1,32.1,0,0,1-8.616,1.368,46,46,0,0,1-4.864-.44c-.03,0-.055-.017-.085-.017l-.015,0c-1-.134-1.992-.273-2.969-.422A51.187,51.187,0,0,0,30.2,20.9c-.791.037-1.579.153-2.37.228a1.539,1.539,0,0,0-.186-.038,1.6,1.6,0,0,0-.525.106,49.964,49.964,0,0,0-15.56,4.268l-.378.175-.1.048-.577.272-.11.052c-.529.251-1.184.569-1.916.935l-.19.1q-.453.227-.93.474l-.259.134q-.518.269-1.044.553l-.142.076q-.543.294-1.075.6c-.146.083-.286.166-.43.249-.21.122-.415.244-.617.366-.1.06-.207.12-.3.18.044-.321.092-.641.149-.959Zm53.425,46.25q-1.793.15-3.583.166A53.345,53.345,0,0,1,8.315,49.973,33.342,33.342,0,0,1,3.8,38.62l.082.106c.111.15.24.31.355.463.254.337.51.674.786,1.026.066.083.119.159.186.243.1.127.217.263.321.391.2.254.423.513.639.773.2.237.379.466.585.708l.11.133c.194.226.413.462.615.692.256.292.513.58.781.876.491.541,1.008,1.087,1.54,1.64.262.272.512.54.784.814.793.8,1.62,1.6,2.5,2.408l.077.074c.9.82,1.845,1.636,2.825,2.445.307.254.631.5.947.752.7.561,1.421,1.116,2.165,1.662.232.17.452.344.687.513.031.021.048.054.081.074s.04.01.059.02c.112.08.235.153.347.233.326.229.636.467.969.693l.007.005c.415.28.858.543,1.284.816.405.26.806.521,1.221.774.161.1.313.2.476.3l.116.074c.705.42,1.445.81,2.178,1.207.307.166.6.343.912.5.066.034.127.073.193.107,1.2.615,2.437,1.19,3.7,1.729.178.076.362.143.541.218l.053.02c.11.045.227.08.338.125.783.317,1.564.638,2.372.921l.1.039c.237.082.488.143.727.223.482.16.975.3,1.466.447q1.449.433,2.943.785c.534.125,1.068.245,1.61.353,1.047.209,2.114.374,3.193.516.494.065.979.146,1.48.2a48.286,48.286,0,0,0,4.84.262h0c.232,0,.467,0,.7-.007a48.517,48.517,0,0,0,5.242-.39c.544-.068,1.069-.17,1.6-.255,1.16-.184,2.3-.394,3.422-.654.583-.136,1.157-.283,1.729-.437q1.6-.433,3.142-.961c.517-.176,1.038-.343,1.545-.534.232-.088.478-.155.708-.245.066-.026.126-.058.191-.084.883-.35,1.734-.74,2.584-1.13.083-.038.172-.068.255-.107l.087-.037c.177-.082.359-.156.535-.24,1.407-.674,2.764-1.4,4.081-2.163.359-.208.695-.432,1.047-.646.953-.579,1.888-1.17,2.791-1.785.432-.294.848-.594,1.269-.9.575-.412,1.15-.822,1.7-1.244.021-.02.049-.028.07-.05l.007-.011c.19-.146.37-.295.557-.442.4-.31.789-.616,1.174-.93.8-.653,1.565-1.311,2.314-1.975.279-.247.569-.49.84-.738,1-.915,1.96-1.832,2.864-2.744.124-.125.233-.247.355-.372q1.163-1.189,2.215-2.35c.263-.291.506-.57.759-.857.537-.609,1.053-1.205,1.541-1.791.241-.289.473-.569.7-.851.477-.588.923-1.151,1.348-1.7.174-.226.354-.453.519-.671.541-.716,1.043-1.4,1.49-2.026l.045-.061.035-.048A32.037,32.037,0,0,1,98.9,41.4,50.808,50.808,0,0,1,57.057,74.963Z" transform="translate(-0.004 -4.658)" fill="#082733"/>
</svg>
