<svg xmlns="http://www.w3.org/2000/svg" width="57.659" height="85.345" viewBox="0 0 57.659 85.345">
  <g id="Outline" transform="translate(-11.731 -1.999)">
    <circle id="Ellipse_15" data-name="Ellipse 15" cx="1.422" cy="1.422" r="1.422" transform="translate(17.803 14.802)" fill="#fff"/>
    <path id="Path_6913" data-name="Path 6913" d="M25,6a9.685,9.685,0,0,0-6.877,2.971,1.423,1.423,0,1,0,2.017,2.007A6.866,6.866,0,0,1,25,8.845,1.422,1.422,0,0,0,25,6Z" transform="translate(2.525 1.69)" fill="#fff"/>
    <path id="Path_6914" data-name="Path 6914" d="M50.762,46.095a5.451,5.451,0,0,0,5.446-5.446V37.56h.555a7.094,7.094,0,0,0,6.131-3.529c.56-.972,1.173-1.916,1.788-2.863a33.767,33.767,0,0,0,3.538-6.448,16.883,16.883,0,0,0-6.9-20.571C56.043,1,47.941.522,40.562,8.151,33.184.522,25.082,1,19.808,4.15A16.88,16.88,0,0,0,12.9,24.716a33.731,33.731,0,0,0,3.538,6.453c.614.946,1.228,1.89,1.788,2.862a7.1,7.1,0,0,0,6.136,3.529h.555v3.088a5.451,5.451,0,0,0,5.446,5.446h1.666v5.69H29.183a1.422,1.422,0,1,0,0,2.845h2.845v5.69H29.183a1.422,1.422,0,0,0,0,2.845h2.845v5.69H29.183a1.422,1.422,0,1,0,0,2.845h2.845v5.69H29.183a1.422,1.422,0,1,0,0,2.845h2.845a1.422,1.422,0,0,0,.149.636l2.845,5.69a1.422,1.422,0,0,0,1.273.787h8.534a1.422,1.422,0,0,0,1.28-.787l2.845-5.69a1.422,1.422,0,0,0,.142-.636h2.845a1.422,1.422,0,1,0,0-2.845H49.1V71.7h2.845a1.422,1.422,0,1,0,0-2.845H49.1v-5.69h2.845a1.422,1.422,0,0,0,0-2.845H49.1v-5.69h2.845a1.422,1.422,0,1,0,0-2.845H49.1v-5.69Zm-26.4-11.379a4.244,4.244,0,0,1-3.673-2.105c-.583-1.014-1.223-2-1.865-2.987a31.024,31.024,0,0,1-3.262-5.906,14.038,14.038,0,0,1,5.7-17.124,12.233,12.233,0,0,1,6.251-1.72c3.7,0,7.9,1.68,11.863,6.2,1.036,2.084,2.314,4.994,7.681,5.031a1.422,1.422,0,1,0,0-2.845c-3.111,0-4.013-1.232-4.785-2.755,6.331-6.8,13.19-6.533,17.585-3.913a14.039,14.039,0,0,1,5.7,17.124,31.107,31.107,0,0,1-3.26,5.9c-.641.989-1.28,1.977-1.868,2.987a4.24,4.24,0,0,1-3.671,2.109ZM43.95,84.5H37.174L35.04,80.233H46.084Zm2.3-7.112H34.872V71.7H46.252Zm0-8.534H34.872v-5.69H46.252Zm0-8.534H34.872v-5.69H46.252Zm0-8.534H34.872v-5.69H46.252ZM30.362,43.25a2.6,2.6,0,0,1-2.6-2.6V37.56h25.6v3.088a2.6,2.6,0,0,1-2.6,2.6Z" transform="translate(0 0)" fill="#fff"/>
  </g>
</svg>
