<svg xmlns="http://www.w3.org/2000/svg" width="124.479" height="81.636" viewBox="0 0 124.479 81.636">
  <path id="Path_6939" data-name="Path 6939" d="M16.983,85.84a25.332,25.332,0,0,1-3.562-.178A8.3,8.3,0,0,1,8.328,71.414,18.486,18.486,0,0,0,14.49,56.6,26.642,26.642,0,0,1,1.561,24.542a24.932,24.932,0,0,1,6.3-9.937A26.856,26.856,0,0,1,35.932,7.8,30.026,30.026,0,0,1,56.056,31.843a45.413,45.413,0,0,1-4.381,28.85v.285C40.7,78.217,30.233,85.84,16.983,85.84ZM15.665,76.9c7.871.392,16.74-2.28,28.209-20.516a36.793,36.793,0,0,0,3.562-22.8A21.371,21.371,0,0,0,33.189,16.243a17.809,17.809,0,0,0-18.913,4.63,16.206,16.206,0,0,0-4.06,6.554A17.809,17.809,0,0,0,20.367,49.51a4.452,4.452,0,0,1,2.707,3.241A26.749,26.749,0,0,1,15.665,76.9ZM47.721,58.628ZM83.552,85.84a25.082,25.082,0,0,1-3.562-.178A8.3,8.3,0,0,1,74.9,71.414,18.486,18.486,0,0,0,81.059,56.6,26.678,26.678,0,0,1,68.13,24.542a25.253,25.253,0,0,1,6.2-9.937,26.891,26.891,0,0,1,28.138-6.8,29.954,29.954,0,0,1,20.124,24.042,45.412,45.412,0,0,1-4.381,28.85,2.1,2.1,0,0,1,0,.285C107.274,78.217,96.766,85.84,83.552,85.84ZM82.2,76.9c7.907.392,16.74-2.28,28.245-20.516a36.366,36.366,0,0,0,3.562-22.8,1.283,1.283,0,0,0,0-.356,21.014,21.014,0,0,0-14.247-16.99,17.809,17.809,0,0,0-18.913,4.63,15.743,15.743,0,0,0-3.954,6.554A17.809,17.809,0,0,0,87.043,49.51a4.488,4.488,0,0,1,2.671,3.241A26.678,26.678,0,0,1,82.2,76.9Zm32.056-18.272Z" transform="matrix(-1, 0.017, -0.017, -1, 124.773, 85.823)" fill="#082733" opacity="0.115"/>
</svg>
