<svg xmlns="http://www.w3.org/2000/svg" width="80.147" height="90.419" viewBox="0 0 80.147 90.419">
  <path id="Path_6986" data-name="Path 6986" d="M43.818,11.869,36.507,14.01a1.434,1.434,0,0,0-.188.047l-.29.1a8.836,8.836,0,0,1-4.914,0l-7.8-2.286a16.378,16.378,0,0,0-9.5.074,26.616,26.616,0,0,1-1.468-4.89,1.411,1.411,0,0,0-2.752,0C7.971,14.282,6.953,15.3-.275,16.929a1.412,1.412,0,0,0,0,2.755A35.773,35.773,0,0,1,3.6,20.742a16.072,16.072,0,0,0-.678,12.333L8.258,48.862A8.9,8.9,0,0,1,8.2,54.6a38.7,38.7,0,0,0,2.493,30.079l1.693,3.188A4.53,4.53,0,0,0,16.7,90.4a4.72,4.72,0,0,0,4.181-2.748l8.411-18.4a4.714,4.714,0,0,1,8.56-.007L46.27,87.665A4.713,4.713,0,0,0,50.445,90.4h.121a4.723,4.723,0,0,0,4.189-2.536l1.583-2.995a39.108,39.108,0,0,0,4.512-18.2,39.359,39.359,0,0,0-1.988-12.268,8.88,8.88,0,0,1,.022-5.55l5.336-15.784a16.573,16.573,0,0,0-20.4-21.209ZM10.979,12.5a12.837,12.837,0,0,0,.761,1.574c.011.034.006.07.019.1a1.3,1.3,0,0,0,.115.173,8.941,8.941,0,0,0,4.913,3.958,9.061,9.061,0,0,0-5.808,5.809,8.91,8.91,0,0,0-4.569-5.21c-.033-.025-.053-.06-.089-.082a1.349,1.349,0,0,0-.332-.121c-.278-.129-.511-.276-.818-.4A9.061,9.061,0,0,0,10.979,12.5ZM61.544,32.171,56.208,47.957a11.726,11.726,0,0,0-.033,7.33,36.524,36.524,0,0,1,1.85,11.392,36.253,36.253,0,0,1-4.186,16.876l-1.583,2.993a1.851,1.851,0,0,1-1.74,1.031,1.873,1.873,0,0,1-1.682-1.1L40.412,68.062a7.538,7.538,0,0,0-13.689.007l-8.411,18.4a1.909,1.909,0,0,1-3.431.074l-1.693-3.186a35.971,35.971,0,0,1-2.253-28.042,11.552,11.552,0,0,0,0-7.36L5.6,32.167a13.3,13.3,0,0,1,.518-10.145c1.791,1.348,2.559,3.422,3.489,7.539a1.411,1.411,0,0,0,2.752,0c1.633-7.229,2.65-8.244,9.878-9.877a1.412,1.412,0,0,0,0-2.755,15.344,15.344,0,0,1-6.688-2.569,13.744,13.744,0,0,1,6.984.22l7.8,2.288a11.742,11.742,0,0,0,1.7.349,12.467,12.467,0,0,0-2.9,5.6A1.411,1.411,0,0,0,30.2,24.5a1.439,1.439,0,0,0,.3.033,1.414,1.414,0,0,0,1.379-1.107A9.749,9.749,0,0,1,37.354,16.7l7.261-2.127A13.749,13.749,0,0,1,61.544,32.171ZM77.671,8.645c-5.684-1.284-6.4-2-7.688-7.688a1.463,1.463,0,0,0-2.752,0c-1.285,5.685-2,6.4-7.691,7.688a1.412,1.412,0,0,0,0,2.755c5.686,1.285,6.406,2,7.691,7.687a1.411,1.411,0,0,0,2.752,0c1.285-5.685,2-6.4,7.688-7.687a1.412,1.412,0,0,0,0-2.755ZM68.607,13.96a7.268,7.268,0,0,0-3.941-3.938,7.266,7.266,0,0,0,3.941-3.939,7.261,7.261,0,0,0,3.938,3.939,7.258,7.258,0,0,0-3.938,3.938Z" transform="translate(1.375 0.009)" fill="#082733"/>
</svg>
