<svg id="Group_4582" data-name="Group 4582" xmlns="http://www.w3.org/2000/svg" width="45.463" height="79.794" viewBox="0 0 45.463 79.794">
  <path id="Path_6920" data-name="Path 6920" d="M34.456,16.208h-.212l-.935-9.264A2.16,2.16,0,0,0,31.09,4.85H25.5a2.146,2.146,0,0,0-2.219,1.982l-.935,9.388h-.062a3.794,3.794,0,0,0-3.778,3.441L18.2,23.315c0,.012-.012.025-.012.037v.012L13.772,75.892a2.462,2.462,0,0,0,.648,1.9,2.53,2.53,0,0,0,1.845.81H40.3a2.5,2.5,0,0,0,2.481-2.706l-4.576-56.23A3.764,3.764,0,0,0,34.456,16.208Zm-8.79-8.939h5.249l.9,8.952H24.781ZM20.928,19.861A1.369,1.369,0,0,1,22.3,18.639H34.468a1.37,1.37,0,0,1,1.371,1.234l.187,2.282h-15.3Zm19.45,56.292a.081.081,0,0,1-.062.025L16.2,76.091l.175-2.007H40.216ZM16.565,71.665l3.952-47.116H36.189L40,71.665Z" transform="translate(-13.762 1.197)" fill="#082733"/>
  <path id="Path_6921" data-name="Path 6921" d="M26.592,38.625a5.922,5.922,0,1,0,5.922,5.922A5.928,5.928,0,0,0,26.592,38.625Zm0,9.438a3.5,3.5,0,1,1,3.5-3.5A3.507,3.507,0,0,1,26.592,48.063Zm28.427-16.42h0a10.615,10.615,0,0,0,2.431-8.129,29.766,29.766,0,0,1-.15-3.167V3.217a3.216,3.216,0,0,0-6.2-1.209l-9.687-.461a1.236,1.236,0,0,0-1.022.474,1.213,1.213,0,0,0-.187,1.11c.037.125,3.927,12.331,2.818,18.764a1.237,1.237,0,0,0,.287,1.01,1.183,1.183,0,0,0,.9.4h.075l7.019-.424c.237,3-1.721,6.184-2.631,7.468a5.054,5.054,0,0,0-.948,2.955V75.044a4.75,4.75,0,1,0,9.488-.349L54.3,33.663A2.761,2.761,0,0,1,55.019,31.643ZM45.593,20.8c.025-.3.037-.611.037-.923l3.416-.274a1.207,1.207,0,0,0-.187-2.406l-3.267.262c-.025-.424-.062-.848-.1-1.272l3.516-.137a1.2,1.2,0,0,0,1.16-1.259,1.174,1.174,0,0,0-1.259-1.16l-3.715.15c-.1-.661-.212-1.334-.324-1.982h3.84a1.209,1.209,0,0,0,0-2.419H44.384c-.1-.474-.212-.935-.312-1.384l4.6.137h.037a1.21,1.21,0,0,0,.037-2.419l-5.3-.162c-.162-.561-.3-1.072-.436-1.509l7.855.374V16.42c0,1.3.025,2.656.15,4.04Zm9.239,54.073a2.277,2.277,0,0,1-.623,1.758,2.3,2.3,0,0,1-1.708.748,2.336,2.336,0,0,1-2.331-2.331V33.289a2.7,2.7,0,0,1,.5-1.558c1.421-2.007,3.7-5.96,2.992-9.887A30.743,30.743,0,0,1,53.3,16.42V3.217a.8.8,0,1,1,1.6,0V20.347a29.351,29.351,0,0,0,.162,3.441,8.251,8.251,0,0,1-1.87,6.3A5.21,5.21,0,0,0,51.9,33.85Z" transform="translate(-12.057)" fill="#082733"/>
</svg>
